# WaveFront *.obj file (generated by Autodesk ATF)

mtllib body15_visual.mtl

g Body15

v 5.000000 750.000000 195.000000
v 5.000000 750.000000 185.000000
v 5.000000 790.000000 185.000000
v 5.000000 790.000000 195.000000
v -5.000000 750.000000 185.000000
v -5.000000 750.000000 195.000000
v -5.000000 790.000000 195.000000
v -5.000000 790.000000 185.000000
v 110.000000 750.000000 195.000000
v 110.000000 750.000000 10.000000
v 108.000000 750.000000 10.000000
v 108.000000 750.000000 76.096806
v 102.000000 750.000000 76.096806
v 102.000000 750.000000 10.000000
v 100.000000 750.000000 10.000000
v 100.000000 750.000000 185.000000
v -100.000000 750.000000 185.000000
v -100.000000 750.000000 10.000000
v -102.000000 750.000000 10.000000
v -102.000000 750.000000 76.096806
v -108.000000 750.000000 76.096806
v -108.000000 750.000000 10.000000
v -110.000000 750.000000 10.000000
v -110.000000 750.000000 195.000000
v 108.000000 775.367555 15.717788
v 108.000000 753.144310 15.717788
v 108.000000 753.144310 63.375691
v 108.000000 779.194682 23.005765
v 108.000000 754.437923 76.096806
v 108.000000 779.194682 10.000000
v 102.000000 775.367555 15.717788
v 102.000000 753.144310 15.717788
v 102.000000 779.194682 10.000000
v 102.000000 779.194682 23.005765
v 102.000000 754.437923 76.096806
v 102.000000 753.144310 63.375691
v -108.000000 753.144310 15.717788
v -108.000000 775.367555 15.717788
v -108.000000 753.144310 63.375691
v -108.000000 754.437923 76.096806
v -108.000000 779.194682 23.005765
v -108.000000 779.194682 10.000000
v -102.000000 753.144310 15.717788
v -102.000000 775.367555 15.717788
v -102.000000 779.194682 23.005765
v -102.000000 779.194682 10.000000
v -102.000000 754.437923 76.096806
v -102.000000 753.144310 63.375691
v -100.000000 740.000000 185.000000
v 100.000000 740.000000 185.000000
v 100.000000 740.000000 10.000000
v 110.000000 740.000000 10.000000
v 110.000000 740.000000 195.000000
v -100.000000 740.000000 10.000000
v -110.000000 740.000000 10.000000
v -110.000000 740.000000 195.000000
vt -0.000000 0.000000 0.000000
vt 10.000000 0.000000 0.000000
vt -0.000000 40.000000 0.000000
vt 10.000000 40.000000 0.000000
vt 0.000000 0.000000 0.000000
vt 10.000000 0.000000 0.000000
vt 0.000000 40.000000 0.000000
vt 10.000000 40.000000 0.000000
vt -5.000000 -5.000000 0.000000
vt 5.000000 -5.000000 0.000000
vt -5.000000 5.000000 0.000000
vt 5.000000 5.000000 0.000000
vt -105.000000 175.000000 0.000000
vt -105.000000 185.000000 0.000000
vt -200.000000 175.000000 0.000000
vt -210.000000 185.000000 0.000000
vt -208.000000 66.096806 0.000000
vt -210.000000 0.000000 0.000000
vt -208.000000 0.000000 0.000000
vt -202.000000 66.096806 0.000000
vt -200.000000 0.000000 0.000000
vt -202.000000 0.000000 0.000000
vt -95.000000 175.000000 0.000000
vt -0.000000 175.000000 0.000000
vt -95.000000 185.000000 0.000000
vt 10.000000 185.000000 0.000000
vt 8.000000 66.096806 0.000000
vt 10.000000 0.000000 0.000000
vt 8.000000 0.000000 0.000000
vt 2.000000 66.096806 0.000000
vt 0.000000 0.000000 0.000000
vt 2.000000 0.000000 0.000000
vt 27.330615 -11.453032 0.000000
vt 33.048403 -14.597341 0.000000
vt 27.330615 10.770214 0.000000
vt 33.048403 14.597341 0.000000
vt 20.042637 14.597341 0.000000
vt -20.327289 -11.453032 0.000000
vt -33.048403 -10.159418 0.000000
vt -33.048403 -14.597341 0.000000
vt -22.223246 2.000000 0.000000
vt 0.000000 2.000000 0.000000
vt -22.223246 8.000000 0.000000
vt 0.000000 8.000000 0.000000
vt -13.005765 2.000000 0.000000
vt -0.000000 2.000000 0.000000
vt -13.005765 8.000000 0.000000
vt -0.000000 8.000000 0.000000
vt -58.579481 2.000000 0.000000
vt -0.000000 2.000000 0.000000
vt -58.579481 8.000000 0.000000
vt -0.000000 8.000000 0.000000
vt -4.437923 2.000000 0.000000
vt -0.000000 2.000000 0.000000
vt -4.437923 8.000000 0.000000
vt -0.000000 8.000000 0.000000
vt -52.584679 2.000000 0.000000
vt -0.000000 2.000000 0.000000
vt -52.584679 8.000000 0.000000
vt -0.000000 8.000000 0.000000
vt -47.657904 2.000000 0.000000
vt -0.000000 2.000000 0.000000
vt -47.657904 8.000000 0.000000
vt -0.000000 8.000000 0.000000
vt 20.327289 -11.453032 0.000000
vt -20.042637 14.597341 0.000000
vt -27.330615 10.770214 0.000000
vt -33.048403 14.597341 0.000000
vt -33.048403 -14.597341 0.000000
vt -27.330615 -11.453032 0.000000
vt 33.048403 -14.597341 0.000000
vt 33.048403 -10.159418 0.000000
vt 20.327289 -11.453032 0.000000
vt -27.330615 -11.453032 0.000000
vt -33.048403 -14.597341 0.000000
vt -27.330615 10.770214 0.000000
vt -33.048403 14.597341 0.000000
vt -20.042637 14.597341 0.000000
vt 33.048403 -10.159418 0.000000
vt 33.048403 -14.597341 0.000000
vt -0.000000 2.000000 0.000000
vt 22.223246 2.000000 0.000000
vt -0.000000 8.000000 0.000000
vt 22.223246 8.000000 0.000000
vt 0.000000 2.000000 0.000000
vt 13.005765 2.000000 0.000000
vt 0.000000 8.000000 0.000000
vt 13.005765 8.000000 0.000000
vt 0.000000 2.000000 0.000000
vt 58.579481 2.000000 0.000000
vt 0.000000 8.000000 0.000000
vt 58.579481 8.000000 0.000000
vt 0.000000 2.000000 0.000000
vt 4.437923 2.000000 0.000000
vt 0.000000 8.000000 0.000000
vt 4.437923 8.000000 0.000000
vt 0.000000 2.000000 0.000000
vt 52.584679 2.000000 0.000000
vt 0.000000 8.000000 0.000000
vt 52.584679 8.000000 0.000000
vt 0.000000 2.000000 0.000000
vt 47.657904 2.000000 0.000000
vt 0.000000 8.000000 0.000000
vt 47.657904 8.000000 0.000000
vt 27.330615 10.770214 0.000000
vt 20.042637 14.597341 0.000000
vt -20.327289 -11.453032 0.000000
vt -33.048403 -10.159418 0.000000
vt -33.048403 -14.597341 0.000000
vt 27.330615 -11.453032 0.000000
vt 33.048403 -14.597341 0.000000
vt 33.048403 14.597341 0.000000
vt 10.000000 0.000000 0.000000
vt 10.000000 95.000000 0.000000
vt 0.000000 0.000000 0.000000
vt 10.000000 105.000000 0.000000
vt 0.000000 200.000000 0.000000
vt 10.000000 200.000000 0.000000
vt 50.000000 95.000000 0.000000
vt 50.000000 105.000000 0.000000
vt 10.000000 175.000000 0.000000
vt 0.000000 175.000000 0.000000
vt 10.000000 0.000000 0.000000
vt -0.000000 0.000000 0.000000
vt 0.000000 0.000000 0.000000
vt 10.000000 0.000000 0.000000
vt 0.000000 185.000000 0.000000
vt 10.000000 185.000000 0.000000
vt 5.000000 -5.000000 0.000000
vt 5.000000 5.000000 0.000000
vt 3.000000 -5.000000 0.000000
vt -5.000000 5.000000 0.000000
vt -3.000000 -5.000000 0.000000
vt -5.000000 -5.000000 0.000000
vt -3.000000 -34.194682 0.000000
vt 3.000000 -34.194682 0.000000
vt 10.000000 175.000000 0.000000
vt -0.000000 175.000000 0.000000
vt 10.000000 0.000000 0.000000
vt 0.000000 0.000000 0.000000
vt 10.000000 0.000000 0.000000
vt 10.000000 175.000000 0.000000
vt 0.000000 0.000000 0.000000
vt 0.000000 185.000000 0.000000
vt 210.000000 175.000000 0.000000
vt 220.000000 185.000000 0.000000
vt 220.000000 0.000000 0.000000
vt 210.000000 0.000000 0.000000
vt 0.000000 0.000000 0.000000
vt 10.000000 0.000000 0.000000
vt 0.000000 185.000000 0.000000
vt 10.000000 185.000000 0.000000
vt 215.000000 5.000000 0.000000
vt 110.000000 5.000000 0.000000
vt 215.000000 -5.000000 0.000000
vt 100.000000 5.000000 0.000000
vt -5.000000 -5.000000 0.000000
vt -5.000000 5.000000 0.000000
vt 110.000000 45.000000 0.000000
vt 100.000000 45.000000 0.000000
vt 5.000000 -5.000000 0.000000
vt 5.000000 5.000000 0.000000
vt 3.000000 -5.000000 0.000000
vt -5.000000 5.000000 0.000000
vt -3.000000 -5.000000 0.000000
vt -5.000000 -5.000000 0.000000
vt -3.000000 -34.194682 0.000000
vt 3.000000 -34.194682 0.000000
vn 1.000000 0.000000 0.000000
vn 1.000000 0.000000 0.000000
vn 1.000000 0.000000 0.000000
vn 1.000000 0.000000 0.000000
vn -1.000000 0.000000 0.000000
vn -1.000000 0.000000 0.000000
vn -1.000000 0.000000 0.000000
vn -1.000000 0.000000 0.000000
vn 0.000000 1.000000 0.000000
vn 0.000000 1.000000 0.000000
vn 0.000000 1.000000 0.000000
vn 0.000000 1.000000 0.000000
vn -0.000000 1.000000 0.000000
vn -0.000000 1.000000 0.000000
vn -0.000000 1.000000 0.000000
vn -0.000000 1.000000 0.000000
vn -0.000000 1.000000 0.000000
vn -0.000000 1.000000 0.000000
vn -0.000000 1.000000 0.000000
vn -0.000000 1.000000 0.000000
vn -0.000000 1.000000 0.000000
vn -0.000000 1.000000 0.000000
vn -0.000000 1.000000 0.000000
vn -0.000000 1.000000 0.000000
vn -0.000000 1.000000 0.000000
vn -0.000000 1.000000 0.000000
vn -0.000000 1.000000 0.000000
vn -0.000000 1.000000 0.000000
vn -0.000000 1.000000 0.000000
vn -0.000000 1.000000 0.000000
vn -0.000000 1.000000 0.000000
vn -0.000000 1.000000 0.000000
vn 1.000000 -0.000000 -0.000000
vn 1.000000 -0.000000 -0.000000
vn 1.000000 -0.000000 -0.000000
vn 1.000000 -0.000000 -0.000000
vn 1.000000 -0.000000 -0.000000
vn 1.000000 -0.000000 -0.000000
vn 1.000000 -0.000000 -0.000000
vn 1.000000 -0.000000 -0.000000
vn 0.000000 -0.000000 1.000000
vn 0.000000 -0.000000 1.000000
vn 0.000000 -0.000000 1.000000
vn 0.000000 -0.000000 1.000000
vn -0.000000 1.000000 0.000000
vn -0.000000 1.000000 0.000000
vn -0.000000 1.000000 0.000000
vn -0.000000 1.000000 0.000000
vn 0.000000 0.906308 0.422618
vn 0.000000 0.906308 0.422618
vn 0.000000 0.906308 0.422618
vn 0.000000 0.906308 0.422618
vn 0.000000 0.000000 1.000000
vn 0.000000 0.000000 1.000000
vn 0.000000 0.000000 1.000000
vn 0.000000 0.000000 1.000000
vn 0.000000 -0.906308 -0.422618
vn 0.000000 -0.906308 -0.422618
vn 0.000000 -0.906308 -0.422618
vn 0.000000 -0.906308 -0.422618
vn 0.000000 1.000000 0.000000
vn 0.000000 1.000000 0.000000
vn 0.000000 1.000000 0.000000
vn 0.000000 1.000000 0.000000
vn -1.000000 0.000000 -0.000000
vn -1.000000 0.000000 -0.000000
vn -1.000000 0.000000 -0.000000
vn -1.000000 0.000000 -0.000000
vn -1.000000 0.000000 -0.000000
vn -1.000000 0.000000 -0.000000
vn -1.000000 0.000000 -0.000000
vn -1.000000 0.000000 -0.000000
vn -1.000000 -0.000000 -0.000000
vn -1.000000 -0.000000 -0.000000
vn -1.000000 -0.000000 -0.000000
vn -1.000000 -0.000000 -0.000000
vn -1.000000 -0.000000 -0.000000
vn -1.000000 -0.000000 -0.000000
vn -1.000000 -0.000000 -0.000000
vn -1.000000 -0.000000 -0.000000
vn 0.000000 -0.000000 1.000000
vn 0.000000 -0.000000 1.000000
vn 0.000000 -0.000000 1.000000
vn 0.000000 -0.000000 1.000000
vn 0.000000 1.000000 0.000000
vn 0.000000 1.000000 0.000000
vn 0.000000 1.000000 0.000000
vn 0.000000 1.000000 0.000000
vn -0.000000 0.906308 0.422618
vn -0.000000 0.906308 0.422618
vn -0.000000 0.906308 0.422618
vn -0.000000 0.906308 0.422618
vn -0.000000 0.000000 1.000000
vn -0.000000 0.000000 1.000000
vn -0.000000 0.000000 1.000000
vn -0.000000 0.000000 1.000000
vn 0.000000 -0.906308 -0.422618
vn 0.000000 -0.906308 -0.422618
vn 0.000000 -0.906308 -0.422618
vn 0.000000 -0.906308 -0.422618
vn -0.000000 1.000000 0.000000
vn -0.000000 1.000000 0.000000
vn -0.000000 1.000000 0.000000
vn -0.000000 1.000000 0.000000
vn 1.000000 0.000000 -0.000000
vn 1.000000 0.000000 -0.000000
vn 1.000000 0.000000 -0.000000
vn 1.000000 0.000000 -0.000000
vn 1.000000 0.000000 -0.000000
vn 1.000000 0.000000 -0.000000
vn 1.000000 0.000000 -0.000000
vn 1.000000 0.000000 -0.000000
vn 0.000000 0.000000 -1.000000
vn 0.000000 0.000000 -1.000000
vn 0.000000 0.000000 -1.000000
vn 0.000000 0.000000 -1.000000
vn 0.000000 0.000000 -1.000000
vn 0.000000 0.000000 -1.000000
vn 0.000000 0.000000 -1.000000
vn 0.000000 0.000000 -1.000000
vn -1.000000 0.000000 0.000000
vn -1.000000 0.000000 0.000000
vn -1.000000 0.000000 0.000000
vn -1.000000 0.000000 0.000000
vn 1.000000 0.000000 -0.000000
vn 1.000000 0.000000 -0.000000
vn 1.000000 0.000000 -0.000000
vn 1.000000 0.000000 -0.000000
vn -0.000000 -0.000000 -1.000000
vn -0.000000 -0.000000 -1.000000
vn -0.000000 -0.000000 -1.000000
vn -0.000000 -0.000000 -1.000000
vn -0.000000 -0.000000 -1.000000
vn -0.000000 -0.000000 -1.000000
vn -0.000000 -0.000000 -1.000000
vn -0.000000 -0.000000 -1.000000
vn 1.000000 0.000000 -0.000000
vn 1.000000 0.000000 -0.000000
vn 1.000000 0.000000 -0.000000
vn 1.000000 0.000000 -0.000000
vn 0.000000 -1.000000 0.000000
vn 0.000000 -1.000000 0.000000
vn 0.000000 -1.000000 0.000000
vn 0.000000 -1.000000 0.000000
vn 0.000000 -1.000000 0.000000
vn 0.000000 -1.000000 0.000000
vn 0.000000 -1.000000 0.000000
vn 0.000000 -1.000000 0.000000
vn -1.000000 -0.000000 0.000000
vn -1.000000 -0.000000 0.000000
vn -1.000000 -0.000000 0.000000
vn -1.000000 -0.000000 0.000000
vn 0.000000 0.000000 1.000000
vn 0.000000 0.000000 1.000000
vn 0.000000 0.000000 1.000000
vn 0.000000 0.000000 1.000000
vn 0.000000 0.000000 1.000000
vn 0.000000 0.000000 1.000000
vn 0.000000 0.000000 1.000000
vn 0.000000 0.000000 1.000000
vn -0.000000 -0.000000 -1.000000
vn -0.000000 -0.000000 -1.000000
vn -0.000000 -0.000000 -1.000000
vn -0.000000 -0.000000 -1.000000
vn -0.000000 -0.000000 -1.000000
vn -0.000000 -0.000000 -1.000000
vn -0.000000 -0.000000 -1.000000
vn -0.000000 -0.000000 -1.000000
usemtl Aluminum_-_Bead_Blasted
f 1/1/1 2/2/2 4/3/3
f 4/3/3 2/2/2 3/4/4
f 5/5/5 6/6/6 8/7/7
f 8/7/7 6/6/6 7/8/8
f 8/9/9 7/10/10 3/11/11
f 3/11/11 7/10/10 4/12/12
f 2/13/13 1/14/14 16/15/15
f 16/15/15 1/14/14 9/16/16
f 16/15/15 9/16/16 12/17/17
f 12/17/17 9/16/16 10/18/18
f 12/17/17 10/18/18 11/19/19
f 12/17/17 13/20/20 16/15/15
f 16/15/15 13/20/20 15/21/21
f 15/21/21 13/20/20 14/22/22
f 5/23/23 17/24/24 6/25/25
f 6/25/25 17/24/24 24/26/26
f 24/26/26 17/24/24 21/27/27
f 24/26/26 21/27/27 23/28/28
f 23/28/28 21/27/27 22/29/29
f 21/27/27 17/24/24 20/30/30
f 20/30/30 17/24/24 18/31/31
f 20/30/30 18/31/31 19/32/32
f 26/33/33 11/34/34 25/35/35
f 25/35/35 11/34/34 30/36/36
f 25/35/35 30/36/36 28/37/37
f 11/34/34 26/33/33 27/38/38
f 25/35/35 28/37/37 27/38/38
f 27/38/38 28/37/37 29/39/39
f 27/38/38 29/39/39 12/40/40
f 12/40/40 11/34/34 27/38/38
f 26/41/41 25/42/42 32/43/43
f 32/43/43 25/42/42 31/44/44
f 28/45/45 30/46/46 34/47/47
f 34/47/47 30/46/46 33/48/48
f 29/49/49 28/50/50 35/51/51
f 35/51/51 28/50/50 34/52/52
f 12/53/53 29/54/54 13/55/55
f 13/55/55 29/54/54 35/56/56
f 25/57/57 27/58/58 31/59/59
f 31/59/59 27/58/58 36/60/60
f 27/61/61 26/62/62 36/63/63
f 36/63/63 26/62/62 32/64/64
f 36/65/65 34/66/66 31/67/67
f 31/67/67 34/66/66 33/68/68
f 31/67/67 33/68/68 14/69/69
f 32/70/70 14/69/69 36/65/65
f 36/65/65 14/69/69 13/71/71
f 36/65/65 13/71/71 35/72/72
f 14/69/69 32/70/70 31/67/67
f 35/72/72 34/66/66 36/65/65
f 39/73/73 37/74/74 22/75/75
f 22/75/75 37/74/74 38/76/76
f 22/75/75 38/76/76 42/77/77
f 42/77/77 38/76/76 41/78/78
f 41/78/78 38/76/76 39/73/73
f 41/78/78 39/73/73 40/79/79
f 40/79/79 39/73/73 21/80/80
f 21/80/80 39/73/73 22/75/75
f 38/81/81 37/82/82 44/83/83
f 44/83/83 37/82/82 43/84/84
f 42/85/85 41/86/86 46/87/87
f 46/87/87 41/86/86 45/88/88
f 41/89/89 40/90/90 45/91/91
f 45/91/91 40/90/90 47/92/92
f 40/93/93 21/94/94 47/95/95
f 47/95/95 21/94/94 20/96/96
f 39/97/97 38/98/98 48/99/99
f 48/99/99 38/98/98 44/100/100
f 37/101/101 39/102/102 43/103/103
f 43/103/103 39/102/102 48/104/104
f 44/105/105 45/106/106 48/107/107
f 48/107/107 45/106/106 47/108/108
f 48/107/107 47/108/108 20/109/109
f 43/110/110 19/111/111 44/105/105
f 44/105/105 19/111/111 46/112/112
f 44/105/105 46/112/112 45/106/106
f 19/111/111 43/110/110 48/107/107
f 20/109/109 19/111/111 48/107/107
f 17/113/113 5/114/114 49/115/115
f 49/115/115 5/114/114 2/116/116
f 49/115/115 2/116/116 50/117/117
f 50/117/117 2/116/116 16/118/118
f 5/114/114 8/119/119 2/116/116
f 2/116/116 8/119/119 3/120/120
f 50/121/121 16/122/122 51/123/123
f 51/123/123 16/122/122 15/124/124
f 52/125/125 10/126/126 53/127/127
f 53/127/127 10/126/126 9/128/128
f 10/129/129 52/130/130 11/131/131
f 11/131/131 52/130/130 51/132/132
f 11/131/131 51/132/132 14/133/133
f 14/133/133 51/132/132 15/134/134
f 33/135/135 30/136/136 14/133/133
f 14/133/133 30/136/136 11/131/131
f 17/137/137 49/138/138 18/139/139
f 18/139/139 49/138/138 54/140/140
f 54/141/141 49/142/142 55/143/143
f 55/143/143 49/142/142 56/144/144
f 56/144/144 49/142/142 50/145/145
f 56/144/144 50/145/145 53/146/146
f 53/146/146 50/145/145 52/147/147
f 52/147/147 50/145/145 51/148/148
f 23/149/149 55/150/150 24/151/151
f 24/151/151 55/150/150 56/152/152
f 9/153/153 1/154/154 53/155/155
f 53/155/155 1/154/154 6/156/156
f 53/155/155 6/156/156 56/157/157
f 56/157/157 6/156/156 24/158/158
f 4/159/159 7/160/160 1/154/154
f 1/154/154 7/160/160 6/156/156
f 18/161/161 54/162/162 19/163/163
f 19/163/163 54/162/162 55/164/164
f 19/163/163 55/164/164 22/165/165
f 22/165/165 55/164/164 23/166/166
f 42/167/167 46/168/168 22/165/165
f 22/165/165 46/168/168 19/163/163
# 56 vertices
# 168 texture params
# 168 normals
# 116 facets

# 1 groups
