# WaveFront *.obj file (generated by Autodesk ATF)

mtllib body4_visual.mtl

g Body4

v 135.000000 -215.000000 150.000000
v 134.698463 -216.710101 150.000000
v 133.830222 -218.213938 150.000000
v 132.500000 -219.330127 150.000000
v 130.868241 -219.924039 150.000000
v 129.131759 -219.924039 150.000000
v 127.500000 -219.330127 150.000000
v 126.169778 -218.213938 150.000000
v 125.301537 -216.710101 150.000000
v 125.000000 -215.000000 150.000000
v 125.301537 -213.289899 150.000000
v 126.169778 -211.786062 150.000000
v 127.500000 -210.669873 150.000000
v 129.131759 -210.075961 150.000000
v 130.868241 -210.075961 150.000000
v 132.500000 -210.669873 150.000000
v 133.830222 -211.786062 150.000000
v 134.698463 -213.289899 150.000000
v 135.000000 -215.000000 -50.000000
v 134.698463 -213.289899 -50.000000
v 133.830222 -211.786062 -50.000000
v 132.500000 -210.669873 -50.000000
v 130.868241 -210.075961 -50.000000
v 129.131759 -210.075961 -50.000000
v 127.500000 -210.669873 -50.000000
v 126.169778 -211.786062 -50.000000
v 125.301537 -213.289899 -50.000000
v 125.000000 -215.000000 -50.000000
v 125.301537 -216.710101 -50.000000
v 126.169778 -218.213938 -50.000000
v 127.500000 -219.330127 -50.000000
v 129.131759 -219.924039 -50.000000
v 130.868241 -219.924039 -50.000000
v 132.500000 -219.330127 -50.000000
v 133.830222 -218.213938 -50.000000
v 134.698463 -216.710101 -50.000000
v 135.000000 -215.000000 116.666667
v 135.000000 -215.000000 83.333333
v 135.000000 -215.000000 50.000000
v 135.000000 -215.000000 16.666667
v 135.000000 -215.000000 -16.666667
v 134.698463 -216.710101 116.666667
v 134.698463 -216.710101 83.333333
v 134.698463 -216.710101 50.000000
v 134.698463 -216.710101 16.666667
v 134.698463 -216.710101 -16.666667
v 133.830222 -218.213938 116.666667
v 133.830222 -218.213938 83.333333
v 133.830222 -218.213938 50.000000
v 133.830222 -218.213938 16.666667
v 133.830222 -218.213938 -16.666667
v 132.500000 -219.330127 116.666667
v 132.500000 -219.330127 83.333333
v 132.500000 -219.330127 50.000000
v 132.500000 -219.330127 16.666667
v 132.500000 -219.330127 -16.666667
v 130.868241 -219.924039 116.666667
v 130.868241 -219.924039 83.333333
v 130.868241 -219.924039 50.000000
v 130.868241 -219.924039 16.666667
v 130.868241 -219.924039 -16.666667
v 129.131759 -219.924039 116.666667
v 129.131759 -219.924039 83.333333
v 129.131759 -219.924039 50.000000
v 129.131759 -219.924039 16.666667
v 129.131759 -219.924039 -16.666667
v 127.500000 -219.330127 116.666667
v 127.500000 -219.330127 83.333333
v 127.500000 -219.330127 50.000000
v 127.500000 -219.330127 16.666667
v 127.500000 -219.330127 -16.666667
v 126.169778 -218.213938 116.666667
v 126.169778 -218.213938 83.333333
v 126.169778 -218.213938 50.000000
v 126.169778 -218.213938 16.666667
v 126.169778 -218.213938 -16.666667
v 125.301537 -216.710101 116.666667
v 125.301537 -216.710101 83.333333
v 125.301537 -216.710101 50.000000
v 125.301537 -216.710101 16.666667
v 125.301537 -216.710101 -16.666667
v 125.000000 -215.000000 116.666667
v 125.000000 -215.000000 83.333333
v 125.000000 -215.000000 50.000000
v 125.000000 -215.000000 16.666667
v 125.000000 -215.000000 -16.666667
v 125.301537 -213.289899 116.666667
v 125.301537 -213.289899 83.333333
v 125.301537 -213.289899 50.000000
v 125.301537 -213.289899 16.666667
v 125.301537 -213.289899 -16.666667
v 126.169778 -211.786062 116.666667
v 126.169778 -211.786062 83.333333
v 126.169778 -211.786062 50.000000
v 126.169778 -211.786062 16.666667
v 126.169778 -211.786062 -16.666667
v 127.500000 -210.669873 116.666667
v 127.500000 -210.669873 83.333333
v 127.500000 -210.669873 50.000000
v 127.500000 -210.669873 16.666667
v 127.500000 -210.669873 -16.666667
v 129.131759 -210.075961 116.666667
v 129.131759 -210.075961 83.333333
v 129.131759 -210.075961 50.000000
v 129.131759 -210.075961 16.666667
v 129.131759 -210.075961 -16.666667
v 130.868241 -210.075961 116.666667
v 130.868241 -210.075961 83.333333
v 130.868241 -210.075961 50.000000
v 130.868241 -210.075961 16.666667
v 130.868241 -210.075961 -16.666667
v 132.500000 -210.669873 116.666667
v 132.500000 -210.669873 83.333333
v 132.500000 -210.669873 50.000000
v 132.500000 -210.669873 16.666667
v 132.500000 -210.669873 -16.666667
v 133.830222 -211.786062 116.666667
v 133.830222 -211.786062 83.333333
v 133.830222 -211.786062 50.000000
v 133.830222 -211.786062 16.666667
v 133.830222 -211.786062 -16.666667
v 134.698463 -213.289899 116.666667
v 134.698463 -213.289899 83.333333
v 134.698463 -213.289899 50.000000
v 134.698463 -213.289899 16.666667
v 134.698463 -213.289899 -16.666667
vt -100.000000 13.962634 0.000000
vt -66.666667 13.962634 0.000000
vt -100.000000 15.707963 0.000000
vt -66.666667 15.707963 0.000000
vt -100.000000 -15.707963 0.000000
vt -66.666667 -15.707963 0.000000
vt -100.000000 -13.962634 0.000000
vt -66.666667 -13.962634 0.000000
vt -100.000000 -12.217305 0.000000
vt -66.666667 -12.217305 0.000000
vt -100.000000 -10.471976 0.000000
vt -66.666667 -10.471976 0.000000
vt -100.000000 -8.726646 0.000000
vt -66.666667 -8.726646 0.000000
vt -100.000000 -6.981317 0.000000
vt -66.666667 -6.981317 0.000000
vt -100.000000 -5.235988 0.000000
vt -66.666667 -5.235988 0.000000
vt -100.000000 -3.490659 0.000000
vt -66.666667 -3.490659 0.000000
vt -100.000000 -1.745329 0.000000
vt -66.666667 -1.745329 0.000000
vt -100.000000 0.000000 0.000000
vt -66.666667 0.000000 0.000000
vt -100.000000 1.745329 0.000000
vt -66.666667 1.745329 0.000000
vt -100.000000 3.490659 0.000000
vt -66.666667 3.490659 0.000000
vt -100.000000 5.235988 0.000000
vt -66.666667 5.235988 0.000000
vt -100.000000 6.981317 0.000000
vt -66.666667 6.981317 0.000000
vt -100.000000 8.726646 0.000000
vt -66.666667 8.726646 0.000000
vt -100.000000 10.471976 0.000000
vt -66.666667 10.471976 0.000000
vt -100.000000 12.217305 0.000000
vt -66.666667 12.217305 0.000000
vt 100.000000 -13.962634 0.000000
vt 66.666667 -13.962634 0.000000
vt 100.000000 -15.707963 0.000000
vt 66.666667 -15.707963 0.000000
vt 100.000000 15.707963 0.000000
vt 66.666667 15.707963 0.000000
vt 100.000000 13.962634 0.000000
vt 66.666667 13.962634 0.000000
vt 100.000000 12.217305 0.000000
vt 66.666667 12.217305 0.000000
vt 100.000000 10.471976 0.000000
vt 66.666667 10.471976 0.000000
vt 100.000000 8.726646 0.000000
vt 66.666667 8.726646 0.000000
vt 100.000000 6.981317 0.000000
vt 66.666667 6.981317 0.000000
vt 100.000000 5.235988 0.000000
vt 66.666667 5.235988 0.000000
vt 100.000000 3.490659 0.000000
vt 66.666667 3.490659 0.000000
vt 100.000000 1.745329 0.000000
vt 66.666667 1.745329 0.000000
vt 100.000000 -0.000000 0.000000
vt 66.666667 -0.000000 0.000000
vt 100.000000 -1.745329 0.000000
vt 66.666667 -1.745329 0.000000
vt 100.000000 -3.490659 0.000000
vt 66.666667 -3.490659 0.000000
vt 100.000000 -5.235988 0.000000
vt 66.666667 -5.235988 0.000000
vt 100.000000 -6.981317 0.000000
vt 66.666667 -6.981317 0.000000
vt 100.000000 -8.726646 0.000000
vt 66.666667 -8.726646 0.000000
vt 100.000000 -10.471976 0.000000
vt 66.666667 -10.471976 0.000000
vt 100.000000 -12.217305 0.000000
vt 66.666667 -12.217305 0.000000
vt -33.333333 -15.707963 0.000000
vt -33.333333 -13.962634 0.000000
vt -33.333333 -12.217305 0.000000
vt -33.333333 -10.471976 0.000000
vt -33.333333 -8.726646 0.000000
vt -33.333333 -6.981317 0.000000
vt -33.333333 -5.235988 0.000000
vt -33.333333 -3.490659 0.000000
vt -33.333333 -1.745329 0.000000
vt -33.333333 0.000000 0.000000
vt -33.333333 1.745329 0.000000
vt -33.333333 3.490659 0.000000
vt -33.333333 5.235988 0.000000
vt -33.333333 6.981317 0.000000
vt -33.333333 8.726646 0.000000
vt -33.333333 10.471976 0.000000
vt -33.333333 12.217305 0.000000
vt -33.333333 13.962634 0.000000
vt -33.333333 15.707963 0.000000
vt 0.000000 -15.707963 0.000000
vt 0.000000 -13.962634 0.000000
vt 0.000000 -12.217305 0.000000
vt 0.000000 -10.471976 0.000000
vt 0.000000 -8.726646 0.000000
vt 0.000000 -6.981317 0.000000
vt 0.000000 -5.235988 0.000000
vt 0.000000 -3.490659 0.000000
vt 0.000000 -1.745329 0.000000
vt 0.000000 -0.000000 0.000000
vt 0.000000 1.745329 0.000000
vt 0.000000 3.490659 0.000000
vt 0.000000 5.235988 0.000000
vt 0.000000 6.981317 0.000000
vt 0.000000 8.726646 0.000000
vt 0.000000 10.471976 0.000000
vt 0.000000 12.217305 0.000000
vt 0.000000 13.962634 0.000000
vt 0.000000 15.707963 0.000000
vt 33.333333 -15.707963 0.000000
vt 33.333333 -13.962634 0.000000
vt 33.333333 -12.217305 0.000000
vt 33.333333 -10.471976 0.000000
vt 33.333333 -8.726646 0.000000
vt 33.333333 -6.981317 0.000000
vt 33.333333 -5.235988 0.000000
vt 33.333333 -3.490659 0.000000
vt 33.333333 -1.745329 0.000000
vt 33.333333 -0.000000 0.000000
vt 33.333333 1.745329 0.000000
vt 33.333333 3.490659 0.000000
vt 33.333333 5.235988 0.000000
vt 33.333333 6.981317 0.000000
vt 33.333333 8.726646 0.000000
vt 33.333333 10.471976 0.000000
vt 33.333333 12.217305 0.000000
vt 33.333333 13.962634 0.000000
vt 33.333333 15.707963 0.000000
vt -4.698463 -1.710101 0.000000
vt 4.698463 -1.710101 0.000000
vt -5.000000 0.000000 0.000000
vt 5.000000 -0.000000 0.000000
vt -4.698463 1.710101 0.000000
vt 4.698463 1.710101 0.000000
vt -3.830222 3.213938 0.000000
vt 3.830222 3.213938 0.000000
vt -2.500000 4.330127 0.000000
vt 2.500000 4.330127 0.000000
vt -0.868241 4.924039 0.000000
vt 0.868241 4.924039 0.000000
vt 3.830222 -3.213938 0.000000
vt -3.830222 -3.213938 0.000000
vt 2.500000 -4.330127 0.000000
vt -2.500000 -4.330127 0.000000
vt 0.868241 -4.924039 0.000000
vt -0.868241 -4.924039 0.000000
vt 4.698463 1.710101 0.000000
vt -4.698463 1.710101 0.000000
vt 5.000000 0.000000 0.000000
vt -5.000000 -0.000000 0.000000
vt 4.698463 -1.710101 0.000000
vt -4.698463 -1.710101 0.000000
vt 3.830222 -3.213938 0.000000
vt -3.830222 -3.213938 0.000000
vt 2.500000 -4.330127 0.000000
vt -2.500000 -4.330127 0.000000
vt 0.868241 -4.924039 0.000000
vt -0.868241 -4.924039 0.000000
vt -3.830222 3.213938 0.000000
vt 3.830222 3.213938 0.000000
vt -2.500000 4.330127 0.000000
vt 2.500000 4.330127 0.000000
vt -0.868241 4.924039 0.000000
vt 0.868241 4.924039 0.000000
vn 0.939693 -0.342020 -0.000000
vn 0.939693 -0.342020 -0.000000
vn 1.000000 -0.000000 -0.000000
vn 1.000000 -0.000000 -0.000000
vn 0.939693 0.342020 -0.000000
vn 0.939693 0.342020 -0.000000
vn 0.766044 0.642788 -0.000000
vn 0.766044 0.642788 -0.000000
vn 0.500000 0.866025 -0.000000
vn 0.500000 0.866025 -0.000000
vn 0.173648 0.984808 -0.000000
vn 0.173648 0.984808 -0.000000
vn -0.173648 0.984808 -0.000000
vn -0.173648 0.984808 -0.000000
vn -0.500000 0.866025 -0.000000
vn -0.500000 0.866025 -0.000000
vn -0.766044 0.642788 -0.000000
vn -0.766044 0.642788 -0.000000
vn -0.939693 0.342020 0.000000
vn -0.939693 0.342020 0.000000
vn -1.000000 -0.000000 0.000000
vn -1.000000 -0.000000 0.000000
vn -0.939693 -0.342020 0.000000
vn -0.939693 -0.342020 0.000000
vn -0.766044 -0.642788 0.000000
vn -0.766044 -0.642788 0.000000
vn -0.500000 -0.866025 0.000000
vn -0.500000 -0.866025 0.000000
vn -0.173648 -0.984808 0.000000
vn -0.173648 -0.984808 0.000000
vn 0.173648 -0.984808 0.000000
vn 0.173648 -0.984808 0.000000
vn 0.500000 -0.866025 0.000000
vn 0.500000 -0.866025 0.000000
vn 0.766044 -0.642788 0.000000
vn 0.766044 -0.642788 0.000000
vn 0.939693 0.342020 -0.000000
vn 0.939693 0.342020 -0.000000
vn 1.000000 0.000000 -0.000000
vn 1.000000 0.000000 -0.000000
vn 0.939693 -0.342020 -0.000000
vn 0.939693 -0.342020 -0.000000
vn 0.766044 -0.642788 0.000000
vn 0.766044 -0.642788 0.000000
vn 0.500000 -0.866025 0.000000
vn 0.500000 -0.866025 0.000000
vn 0.173648 -0.984808 0.000000
vn 0.173648 -0.984808 0.000000
vn -0.173648 -0.984808 0.000000
vn -0.173648 -0.984808 0.000000
vn -0.500000 -0.866025 0.000000
vn -0.500000 -0.866025 0.000000
vn -0.766044 -0.642788 0.000000
vn -0.766044 -0.642788 0.000000
vn -0.939693 -0.342020 0.000000
vn -0.939693 -0.342020 0.000000
vn -1.000000 0.000000 0.000000
vn -1.000000 0.000000 0.000000
vn -0.939693 0.342020 0.000000
vn -0.939693 0.342020 0.000000
vn -0.766044 0.642788 -0.000000
vn -0.766044 0.642788 -0.000000
vn -0.500000 0.866025 -0.000000
vn -0.500000 0.866025 -0.000000
vn -0.173648 0.984808 -0.000000
vn -0.173648 0.984808 -0.000000
vn 0.173648 0.984808 -0.000000
vn 0.173648 0.984808 -0.000000
vn 0.500000 0.866025 -0.000000
vn 0.500000 0.866025 -0.000000
vn 0.766044 0.642788 -0.000000
vn 0.766044 0.642788 -0.000000
vn 1.000000 0.000000 -0.000000
vn 0.939693 0.342020 -0.000000
vn 0.766044 0.642788 -0.000000
vn 0.500000 0.866025 -0.000000
vn 0.173648 0.984808 -0.000000
vn -0.173648 0.984808 -0.000000
vn -0.500000 0.866025 -0.000000
vn -0.766044 0.642788 -0.000000
vn -0.939693 0.342020 0.000000
vn -1.000000 -0.000000 0.000000
vn -0.939693 -0.342020 0.000000
vn -0.766044 -0.642788 0.000000
vn -0.500000 -0.866025 0.000000
vn -0.173648 -0.984808 0.000000
vn 0.173648 -0.984808 0.000000
vn 0.500000 -0.866025 0.000000
vn 0.766044 -0.642788 0.000000
vn 0.939693 -0.342020 -0.000000
vn 1.000000 0.000000 -0.000000
vn 0.939693 0.342020 -0.000000
vn 0.766044 0.642788 -0.000000
vn 0.500000 0.866025 -0.000000
vn 0.173648 0.984808 -0.000000
vn -0.173648 0.984808 -0.000000
vn -0.500000 0.866025 -0.000000
vn -0.766044 0.642788 -0.000000
vn -0.939693 0.342020 0.000000
vn -1.000000 0.000000 0.000000
vn -0.939693 -0.342020 0.000000
vn -0.766044 -0.642788 0.000000
vn -0.500000 -0.866025 0.000000
vn -0.173648 -0.984808 0.000000
vn 0.173648 -0.984808 0.000000
vn 0.500000 -0.866025 0.000000
vn 0.766044 -0.642788 0.000000
vn 0.939693 -0.342020 -0.000000
vn 1.000000 0.000000 -0.000000
vn 0.939693 0.342020 -0.000000
vn 0.766044 0.642788 -0.000000
vn 0.500000 0.866025 -0.000000
vn 0.173648 0.984808 -0.000000
vn -0.173648 0.984808 -0.000000
vn -0.500000 0.866025 -0.000000
vn -0.766044 0.642788 -0.000000
vn -0.939693 0.342020 0.000000
vn -1.000000 0.000000 0.000000
vn -0.939693 -0.342020 0.000000
vn -0.766044 -0.642788 0.000000
vn -0.500000 -0.866025 0.000000
vn -0.173648 -0.984808 0.000000
vn 0.173648 -0.984808 0.000000
vn 0.500000 -0.866025 0.000000
vn 0.766044 -0.642788 0.000000
vn 0.939693 -0.342020 -0.000000
vn 0.000000 0.000000 1.000000
vn 0.000000 0.000000 1.000000
vn 0.000000 0.000000 1.000000
vn 0.000000 0.000000 1.000000
vn 0.000000 0.000000 1.000000
vn 0.000000 0.000000 1.000000
vn 0.000000 0.000000 1.000000
vn 0.000000 0.000000 1.000000
vn 0.000000 0.000000 1.000000
vn 0.000000 0.000000 1.000000
vn 0.000000 0.000000 1.000000
vn 0.000000 0.000000 1.000000
vn 0.000000 0.000000 1.000000
vn 0.000000 0.000000 1.000000
vn 0.000000 0.000000 1.000000
vn 0.000000 0.000000 1.000000
vn 0.000000 0.000000 1.000000
vn 0.000000 0.000000 1.000000
vn -0.000000 -0.000000 -1.000000
vn -0.000000 -0.000000 -1.000000
vn -0.000000 -0.000000 -1.000000
vn -0.000000 -0.000000 -1.000000
vn -0.000000 -0.000000 -1.000000
vn -0.000000 -0.000000 -1.000000
vn -0.000000 -0.000000 -1.000000
vn -0.000000 -0.000000 -1.000000
vn -0.000000 -0.000000 -1.000000
vn -0.000000 -0.000000 -1.000000
vn -0.000000 -0.000000 -1.000000
vn -0.000000 -0.000000 -1.000000
vn -0.000000 -0.000000 -1.000000
vn -0.000000 -0.000000 -1.000000
vn -0.000000 -0.000000 -1.000000
vn -0.000000 -0.000000 -1.000000
vn -0.000000 -0.000000 -1.000000
vn -0.000000 -0.000000 -1.000000
usemtl Steel_-_Satin
f 2/1/1 42/2/2 1/3/3
f 1/3/3 42/2/2 37/4/4
f 1/5/3 37/6/4 18/7/5
f 18/7/5 37/6/4 122/8/6
f 18/7/5 122/8/6 17/9/7
f 17/9/7 122/8/6 117/10/8
f 17/9/7 117/10/8 16/11/9
f 16/11/9 117/10/8 112/12/10
f 16/11/9 112/12/10 15/13/11
f 15/13/11 112/12/10 107/14/12
f 15/13/11 107/14/12 14/15/13
f 14/15/13 107/14/12 102/16/14
f 14/15/13 102/16/14 13/17/15
f 13/17/15 102/16/14 97/18/16
f 13/17/15 97/18/16 12/19/17
f 12/19/17 97/18/16 92/20/18
f 12/19/17 92/20/18 11/21/19
f 11/21/19 92/20/18 87/22/20
f 11/21/19 87/22/20 10/23/21
f 10/23/21 87/22/20 82/24/22
f 10/23/21 82/24/22 9/25/23
f 9/25/23 82/24/22 77/26/24
f 9/25/23 77/26/24 8/27/25
f 8/27/25 77/26/24 72/28/26
f 8/27/25 72/28/26 7/29/27
f 7/29/27 72/28/26 67/30/28
f 7/29/27 67/30/28 6/31/29
f 6/31/29 67/30/28 62/32/30
f 6/31/29 62/32/30 5/33/31
f 5/33/31 62/32/30 57/34/32
f 5/33/31 57/34/32 4/35/33
f 4/35/33 57/34/32 52/36/34
f 4/35/33 52/36/34 3/37/35
f 3/37/35 52/36/34 47/38/36
f 3/37/35 47/38/36 2/1/1
f 2/1/1 47/38/36 42/2/2
f 20/39/37 126/40/38 19/41/39
f 19/41/39 126/40/38 41/42/40
f 19/43/39 41/44/40 36/45/41
f 36/45/41 41/44/40 46/46/42
f 36/45/41 46/46/42 35/47/43
f 35/47/43 46/46/42 51/48/44
f 35/47/43 51/48/44 34/49/45
f 34/49/45 51/48/44 56/50/46
f 34/49/45 56/50/46 33/51/47
f 33/51/47 56/50/46 61/52/48
f 33/51/47 61/52/48 32/53/49
f 32/53/49 61/52/48 66/54/50
f 32/53/49 66/54/50 31/55/51
f 31/55/51 66/54/50 71/56/52
f 31/55/51 71/56/52 30/57/53
f 30/57/53 71/56/52 76/58/54
f 30/57/53 76/58/54 29/59/55
f 29/59/55 76/58/54 81/60/56
f 29/59/55 81/60/56 28/61/57
f 28/61/57 81/60/56 86/62/58
f 28/61/57 86/62/58 27/63/59
f 27/63/59 86/62/58 91/64/60
f 27/63/59 91/64/60 26/65/61
f 26/65/61 91/64/60 96/66/62
f 26/65/61 96/66/62 25/67/63
f 25/67/63 96/66/62 101/68/64
f 25/67/63 101/68/64 24/69/65
f 24/69/65 101/68/64 106/70/66
f 24/69/65 106/70/66 23/71/67
f 23/71/67 106/70/66 111/72/68
f 23/71/67 111/72/68 22/73/69
f 22/73/69 111/72/68 116/74/70
f 22/73/69 116/74/70 21/75/71
f 21/75/71 116/74/70 121/76/72
f 21/75/71 121/76/72 20/39/37
f 20/39/37 121/76/72 126/40/38
f 37/6/4 38/77/73 122/8/6
f 122/8/6 38/77/73 123/78/74
f 122/8/6 123/78/74 117/10/8
f 117/10/8 123/78/74 118/79/75
f 117/10/8 118/79/75 112/12/10
f 112/12/10 118/79/75 113/80/76
f 112/12/10 113/80/76 107/14/12
f 107/14/12 113/80/76 108/81/77
f 107/14/12 108/81/77 102/16/14
f 102/16/14 108/81/77 103/82/78
f 102/16/14 103/82/78 97/18/16
f 97/18/16 103/82/78 98/83/79
f 97/18/16 98/83/79 92/20/18
f 92/20/18 98/83/79 93/84/80
f 92/20/18 93/84/80 87/22/20
f 87/22/20 93/84/80 88/85/81
f 87/22/20 88/85/81 82/24/22
f 82/24/22 88/85/81 83/86/82
f 82/24/22 83/86/82 77/26/24
f 77/26/24 83/86/82 78/87/83
f 77/26/24 78/87/83 72/28/26
f 72/28/26 78/87/83 73/88/84
f 72/28/26 73/88/84 67/30/28
f 67/30/28 73/88/84 68/89/85
f 67/30/28 68/89/85 62/32/30
f 62/32/30 68/89/85 63/90/86
f 62/32/30 63/90/86 57/34/32
f 57/34/32 63/90/86 58/91/87
f 57/34/32 58/91/87 52/36/34
f 52/36/34 58/91/87 53/92/88
f 52/36/34 53/92/88 47/38/36
f 47/38/36 53/92/88 48/93/89
f 47/38/36 48/93/89 42/2/2
f 42/2/2 48/93/89 43/94/90
f 42/2/2 43/94/90 37/4/4
f 37/4/4 43/94/90 38/95/73
f 38/77/73 39/96/91 123/78/74
f 123/78/74 39/96/91 124/97/92
f 123/78/74 124/97/92 118/79/75
f 118/79/75 124/97/92 119/98/93
f 118/79/75 119/98/93 113/80/76
f 113/80/76 119/98/93 114/99/94
f 113/80/76 114/99/94 108/81/77
f 108/81/77 114/99/94 109/100/95
f 108/81/77 109/100/95 103/82/78
f 103/82/78 109/100/95 104/101/96
f 103/82/78 104/101/96 98/83/79
f 98/83/79 104/101/96 99/102/97
f 98/83/79 99/102/97 93/84/80
f 93/84/80 99/102/97 94/103/98
f 93/84/80 94/103/98 88/85/81
f 88/85/81 94/103/98 89/104/99
f 88/85/81 89/104/99 83/86/82
f 83/86/82 89/104/99 84/105/100
f 83/86/82 84/105/100 78/87/83
f 78/87/83 84/105/100 79/106/101
f 78/87/83 79/106/101 73/88/84
f 73/88/84 79/106/101 74/107/102
f 73/88/84 74/107/102 68/89/85
f 68/89/85 74/107/102 69/108/103
f 68/89/85 69/108/103 63/90/86
f 63/90/86 69/108/103 64/109/104
f 63/90/86 64/109/104 58/91/87
f 58/91/87 64/109/104 59/110/105
f 58/91/87 59/110/105 53/92/88
f 53/92/88 59/110/105 54/111/106
f 53/92/88 54/111/106 48/93/89
f 48/93/89 54/111/106 49/112/107
f 48/93/89 49/112/107 43/94/90
f 43/94/90 49/112/107 44/113/108
f 43/94/90 44/113/108 38/95/73
f 38/95/73 44/113/108 39/114/91
f 39/96/91 40/115/109 124/97/92
f 124/97/92 40/115/109 125/116/110
f 124/97/92 125/116/110 119/98/93
f 119/98/93 125/116/110 120/117/111
f 119/98/93 120/117/111 114/99/94
f 114/99/94 120/117/111 115/118/112
f 114/99/94 115/118/112 109/100/95
f 109/100/95 115/118/112 110/119/113
f 109/100/95 110/119/113 104/101/96
f 104/101/96 110/119/113 105/120/114
f 104/101/96 105/120/114 99/102/97
f 99/102/97 105/120/114 100/121/115
f 99/102/97 100/121/115 94/103/98
f 94/103/98 100/121/115 95/122/116
f 94/103/98 95/122/116 89/104/99
f 89/104/99 95/122/116 90/123/117
f 89/104/99 90/123/117 84/105/100
f 84/105/100 90/123/117 85/124/118
f 84/105/100 85/124/118 79/106/101
f 79/106/101 85/124/118 80/125/119
f 79/106/101 80/125/119 74/107/102
f 74/107/102 80/125/119 75/126/120
f 74/107/102 75/126/120 69/108/103
f 69/108/103 75/126/120 70/127/121
f 69/108/103 70/127/121 64/109/104
f 64/109/104 70/127/121 65/128/122
f 64/109/104 65/128/122 59/110/105
f 59/110/105 65/128/122 60/129/123
f 59/110/105 60/129/123 54/111/106
f 54/111/106 60/129/123 55/130/124
f 54/111/106 55/130/124 49/112/107
f 49/112/107 55/130/124 50/131/125
f 49/112/107 50/131/125 44/113/108
f 44/113/108 50/131/125 45/132/126
f 44/113/108 45/132/126 39/114/91
f 39/114/91 45/132/126 40/133/109
f 40/115/109 41/42/40 125/116/110
f 125/116/110 41/42/40 126/40/38
f 125/116/110 126/40/38 120/117/111
f 120/117/111 126/40/38 121/76/72
f 120/117/111 121/76/72 115/118/112
f 115/118/112 121/76/72 116/74/70
f 115/118/112 116/74/70 110/119/113
f 110/119/113 116/74/70 111/72/68
f 110/119/113 111/72/68 105/120/114
f 105/120/114 111/72/68 106/70/66
f 105/120/114 106/70/66 100/121/115
f 100/121/115 106/70/66 101/68/64
f 100/121/115 101/68/64 95/122/116
f 95/122/116 101/68/64 96/66/62
f 95/122/116 96/66/62 90/123/117
f 90/123/117 96/66/62 91/64/60
f 90/123/117 91/64/60 85/124/118
f 85/124/118 91/64/60 86/62/58
f 85/124/118 86/62/58 80/125/119
f 80/125/119 86/62/58 81/60/56
f 80/125/119 81/60/56 75/126/120
f 75/126/120 81/60/56 76/58/54
f 75/126/120 76/58/54 70/127/121
f 70/127/121 76/58/54 71/56/52
f 70/127/121 71/56/52 65/128/122
f 65/128/122 71/56/52 66/54/50
f 65/128/122 66/54/50 60/129/123
f 60/129/123 66/54/50 61/52/48
f 60/129/123 61/52/48 55/130/124
f 55/130/124 61/52/48 56/50/46
f 55/130/124 56/50/46 50/131/125
f 50/131/125 56/50/46 51/48/44
f 50/131/125 51/48/44 45/132/126
f 45/132/126 51/48/44 46/46/42
f 45/132/126 46/46/42 40/133/109
f 40/133/109 46/46/42 41/44/40
f 18/134/127 11/135/128 1/136/129
f 1/136/129 11/135/128 10/137/130
f 1/136/129 10/137/130 2/138/131
f 2/138/131 10/137/130 9/139/132
f 2/138/131 9/139/132 3/140/133
f 3/140/133 9/139/132 8/141/134
f 3/140/133 8/141/134 4/142/135
f 4/142/135 8/141/134 7/143/136
f 4/142/135 7/143/136 5/144/137
f 5/144/137 7/143/136 6/145/138
f 11/135/128 18/134/127 12/146/139
f 12/146/139 18/134/127 17/147/140
f 12/146/139 17/147/140 13/148/141
f 13/148/141 17/147/140 16/149/142
f 13/148/141 16/149/142 14/150/143
f 14/150/143 16/149/142 15/151/144
f 36/152/145 29/153/146 19/154/147
f 19/154/147 29/153/146 28/155/148
f 19/154/147 28/155/148 20/156/149
f 20/156/149 28/155/148 27/157/150
f 20/156/149 27/157/150 21/158/151
f 21/158/151 27/157/150 26/159/152
f 21/158/151 26/159/152 22/160/153
f 22/160/153 26/159/152 25/161/154
f 22/160/153 25/161/154 23/162/155
f 23/162/155 25/161/154 24/163/156
f 29/153/146 36/152/145 30/164/157
f 30/164/157 36/152/145 35/165/158
f 30/164/157 35/165/158 31/166/159
f 31/166/159 35/165/158 34/167/160
f 31/166/159 34/167/160 32/168/161
f 32/168/161 34/167/160 33/169/162
# 126 vertices
# 169 texture params
# 162 normals
# 248 facets

# 1 groups
